# xmcd
#
# Track frame offsets: 
#        150
#        14798
#        27387
#        39306
#        61472
#        77142
#        92934
#        104011
#        132267
#        146042
#        157932
#        174838
#
# Disc length: 2695 seconds
#
# Revision: 4
# Processed by: cddbd v1.5.1PL0 Copyright (c) Steve Scherf et al.
# Submitted via: ExactAudioCopy v0.90b4
#
DISCID=a10a850c
DTITLE=Various Artist - Down Home Blues
DYEAR=2000
DGENRE=Blues
TTITLE0=John Mayall - Why Worry
TTITLE1=Big Maybelle - I Cried for You
TTITLE2=Gatemouth Moore - Did You Ever Love A Woman
TTITLE3=B.B. King - The Thrill Is Gone
TTITLE4=Lightnin' Hopkins - Coffee For Mama
TTITLE5=Eddie "Clean Head" Vinson - Old Maid's Boogie
TTITLE6=Joe Williams - Sinking Blues
TTITLE7=Ray Charles - I Got A Woman
TTITLE8=Lena Horne - Nobody Knows The Trouble I've Seen
TTITLE9=John Lee Hooker - Whiskey And Wimmin
TTITLE10=Joe Liggins - Trust In Me
TTITLE11=Big Joe Turner - Stormy Monday Blues
EXTD=YEAR: 2000 ID3G:   0
EXTT0=
EXTT1=
EXTT2=
EXTT3=
EXTT4=
EXTT5=
EXTT6=
EXTT7=
EXTT8=
EXTT9=
EXTT10=
EXTT11=
PLAYORDER=
